# xmcd CD database file
#
# Track frame offsets:
#	183
#	11808
#	45575
#	62665
#	94058
#	109308
#	120958
#	144573
#	156423
#	167998
#	185733
#
# Disc length: 2858 seconds
#
# Revision: 3
# Processed by: cddbd v1.5.2PL0 Copyright (c) Steve Scherf et al.
# Submitted via: CDex 1.70beta2
#
DISCID=980b280b
DTITLE=Charles, Ray - The Gold Collection
DYEAR=1992
DGENRE=Blues
TTITLE0=Let The Good Times Roll
TTITLE1=Georgia On My Mind
TTITLE2=L Believe To My Soul
TTITLE3=Come Rain or Come Shine
TTITLE4=Hallelujah, I love Her So
TTITLE5=Alexander's Ragtime Band
TTITLE6=I'm Gonna Move to the Outskirts of Town
TTITLE7=Hit The Road Jack
TTITLE8=Margie
TTITLE9=I Wonder
TTITLE10=What' I Say
EXTD=YEAR: 1992
EXTT0=
EXTT1=
EXTT2=
EXTT3=
EXTT4=
EXTT5=
EXTT6=
EXTT7=
EXTT8=
EXTT9=
EXTT10=
PLAYORDER=
